<svg width="1440" height="1077" viewBox="0 0 1440 1077" fill="none" xmlns="http://www.w3.org/2000/svg">
<g clip-path="url(#clip0)">
<rect width="1440" height="1077" fill="#E5E5E5"/>
<rect y="-2" width="1440" height="1024" fill="#667EEA"/>
<rect x="-11" y="-15" width="1451" height="1043" fill="url(#paint0_radial)" fill-opacity="0.6"/>
<circle cx="727.5" cy="875.5" r="74.5" fill="#FBD38D"/>
<circle opacity="0.5" cx="730" cy="869" r="82" fill="#FBD38D"/>
<circle opacity="0.15" cx="734" cy="861" r="90" fill="#FBD38D"/>
<path d="M1363.5 913.507L1461.5 955.507L1503 1200.01L-63 1178.51L-55 807.007C-38.1666 798.173 -3.5 780.607 0.5 781.007C5.5 781.507 59 816.007 64.5 821.007C70 826.007 170 869.507 177 869.507C184 869.507 205 852.507 209 846.507C213 840.507 259 859.007 263 859.007C266.2 859.007 315 854.673 339 852.507C350.333 861.173 373.6 879.407 376 883.007C379 887.507 436.5 897.007 445.5 897.007C452.7 897.007 461.833 892.34 465.5 890.007C485.5 891.507 526.9 895.007 532.5 897.007C539.5 899.507 564 913.507 570.5 918.507C577 923.507 621.5 925.007 626 925.507C630.5 926.007 644.5 909.507 652 906.507C659.5 903.507 703 869.507 706.5 859.007C710 848.507 715 852.507 725 852.507C733 852.507 782 848.507 805.5 846.507L851.5 828.007C857.333 826.84 870.5 823.807 876.5 821.007C884 817.507 898.5 814.507 901 811.007C903 808.207 913.167 800.507 918 797.007C925.667 804.34 941.7 819.407 944.5 821.007C948 823.007 955.5 833.007 957 836.507C958.5 840.007 983 852.507 991.5 859.007C998.3 864.207 1015.67 877.173 1023.5 883.007L1088.5 869.507L1114.5 852.507H1136C1140 858.173 1149.9 872.207 1157.5 883.007C1165.1 893.807 1192 907.84 1204.5 913.507C1218 901.84 1246 878.507 1250 878.507C1255 878.507 1305.5 872.507 1313.5 878.507C1319.9 883.307 1349.5 903.84 1363.5 913.507Z" fill="#5A67D8"/>
<path d="M81 908L-113 1015V1090L1559 1095C1562.33 1071 1568.6 1020 1567 1008C1565 993 1562 959 1559 959C1556 959 1480 834 1478 823C1476.4 814.2 1468 788 1464 776L1437 746C1430.67 746 1417 747.8 1413 755C1409 762.2 1390.67 779.333 1382 787L1356 794L1316 806C1304.67 820 1281.4 848 1279 848C1276.6 848 1274 862 1273 869L1250 893C1242 898 1225.2 908 1222 908C1218.8 908 1162.67 926.667 1135 936C1112.33 933 1065.2 927 1058 927C1049 927 1034 936 1022 942C1012.4 946.8 990 955.333 980 959L938 942L904 927L808 901C787.667 887.333 744 857.6 732 848C717 836 714 841 707 834C701.4 828.4 690 793 685 776C667.513 766.441 656.837 763.792 642 746H616C597.86 763.761 586.143 772.662 563 787C528.948 787.871 459.967 801.993 454 809.5C450.48 813.928 427.333 842.333 418 860C408.457 876.524 400.389 882.832 385 893L377 901C369.957 905.884 362.571 906.896 348 908C345.402 903.108 341.875 899.95 329 893C326.319 899.704 317.891 910.939 313 915C306.381 920.495 291 921 277 921H262L237 908C224.796 906.721 192.645 885.586 182 875C174.892 867.932 170.5 864.5 157.5 860L142 834L119 860C111.921 871.807 108.474 878.889 104 893C97.2962 899.695 91.8413 902.826 81 908Z" fill="#434190"/>
<path d="M470 818.5L461 811.5L478.5 818.5L486.5 814.5L500 811L482.5 832L474.5 866.5L470 893.5L461 916C464 900 470 867.1 470 863.5C470 859 470 830.5 472 828.5C473.6 826.9 471.333 821.167 470 818.5Z" fill="#4C51BF"/>
<path d="M677 781.5C660.673 771.608 652.87 764.746 640.5 751C654.815 761.997 663.554 767.771 682 776.5L700.5 836L713.5 840L733.5 851L763.5 875L807 903.5L858 918.5L901 927.5L947.5 948.5L915 954C910.333 952.333 900 948.3 896 945.5C892 942.7 869 932.333 858 927.5C850.5 934.167 835.2 947.1 834 945.5C832.8 943.9 817.5 932.833 810 927.5L801.5 914L794 927.5L801.5 959L786.5 918.5C775.5 906.667 752.3 882.2 747.5 879C742.7 875.8 730.5 864.667 725 859.5C718.833 860 706.3 860.7 705.5 859.5C704.7 858.3 689.5 839.333 682 830L677 781.5Z" fill="#4C51BF"/>
<path d="M-9 886V945.5L-33 1035.5C38.1667 1038.67 182.2 1044.8 189 1044C195.8 1043.2 251.167 1028 278 1020.5C276.333 1019 271.8 1014.3 267 1007.5C262.2 1000.7 255.667 995 253 993L249 985.5L246 980L235.5 988L232.5 977L223.5 988L216 980L211.5 963L196.5 985.5L187 980L180.5 966.5L177 980L170 970.5L163.5 980L157.5 966.5L146 959L141 953.5L131 963L125.5 949L117.5 942.5L114.5 945.5L111 936.5L104.5 949L96.5 940.5L87 927.5L84.5 918L78 925L73.5 921.5L70.5 927.5H62L52 918L49 910L46 918L40 921.5L34 910L30 915.5L27 901V886L22.5 901L18.5 895L16.5 901L12 895L9.5 897.5V886C8.5 889.833 6.3 898.2 5.5 901C4.7 903.8 1.83333 904.167 0.5 904L-3.5 897.5L-9 886Z" fill="#3C366B"/>
<path d="M1453 895V954.5L1477 1044.5C1405.83 1047.67 1261.8 1053.8 1255 1053C1248.2 1052.2 1192.83 1037 1166 1029.5C1167.67 1028 1172.2 1023.3 1177 1016.5C1181.8 1009.7 1188.33 1004 1191 1002L1195 994.5L1198 989L1208.5 997L1211.5 986L1220.5 997L1228 989L1232.5 972L1247.5 994.5L1257 989L1263.5 975.5L1267 989L1274 979.5L1280.5 989L1286.5 975.5L1298 968L1303 962.5L1313 972L1318.5 958L1326.5 951.5L1329.5 954.5L1333 945.5L1339.5 958L1347.5 949.5L1357 936.5L1359.5 927L1366 934L1370.5 930.5L1373.5 936.5H1382L1392 927L1395 919L1398 927L1404 930.5L1410 919L1414 924.5L1417 910V895L1421.5 910L1425.5 904L1427.5 910L1432 904L1434.5 906.5V895C1435.5 898.833 1437.7 907.2 1438.5 910C1439.3 912.8 1442.17 913.167 1443.5 913L1447.5 906.5L1453 895Z" fill="#3C366B"/>
<path d="M379 1023.5H349C353.5 1033 363.3 1052.3 366.5 1053.5C370.5 1055 401.5 1060 452 1063C502.5 1066 558.5 1067.5 599 1067.5C639.5 1067.5 819.5 1069 869 1067.5C918.5 1066 978.5 1038 977 1034.5C975.8 1031.7 972.167 1023 970.5 1019L964 1009.5C960.167 1008.83 951.3 1006.5 946.5 1002.5C941.7 998.5 944.5 997.833 946.5 998L942 993L927.5 1002.5L914.5 993L910 986.5L897 998H889.5L884.5 993L878.5 986.5C876.833 990.333 872.6 998.9 869 1002.5C865.4 1006.1 855.5 1008.67 851 1009.5L829 1002.5L812 1007.5L803.5 998L788 993L775.5 980L769 986.5H760L752 980L746.5 955L741.5 980H732.5L722.5 993L716.5 986.5C713.333 984.333 706.3 979.2 703.5 976C700.7 972.8 697.667 979.667 696.5 983.5L693 993C691 990.833 686.6 986.5 685 986.5C683 986.5 680.5 993 678.5 993C676.9 993 669.167 988.667 665.5 986.5L660 980L655 964.5L642.5 986.5L631.5 976L623 986.5L617 976L606 993L594 980C587.833 977 574.9 972 572.5 976C569.5 981 558 986.5 554.5 986.5C551.7 986.5 541 994.167 536 998L515.5 986.5L504.5 993L493 986.5L485.5 976L472.5 986.5L467.5 998L461 993L456.5 998C453.833 992 448.2 979.2 447 976C445.5 972 440.5 983.5 438 986.5C436 988.9 430.833 995.167 428.5 998L419 1007.5L415.5 998L407 1009.5C403 1012.67 394.2 1019 391 1019L379 1023.5Z" fill="#3C366B"/>
<path d="M34.1123 928.5C66.9998 934.065 87.597 937.774 82.6123 933C73.7144 926.373 72.9828 926.711 67.1123 921C58.9499 913.059 46.4525 899.009 38.1123 888C25.6123 894.167 0.112332 907.9 -1.88767 913.5C-3.88767 919.1 4.66661 949.833 17.4999 964.5C55.4617 968.039 98.0161 971.06 90.6123 964.5C62.2013 948.998 50.1176 941.18 34.1123 928.5Z" fill="#3C366B"/>
<path d="M25.8391 875.002C58.7315 878.553 79.3353 880.948 74.2877 877.419C65.3074 872.562 64.5829 872.834 58.637 868.611C50.3694 862.74 37.6813 852.309 29.188 844.107C16.8172 849.058 -8.401 860.035 -10.3073 864.337C-12.2136 868.639 -3.19455 891.843 9.83847 902.735C47.7603 904.64 90.2549 906.056 82.766 901.218C54.1814 890.014 42.0046 884.317 25.8391 875.002Z" fill="#3C366B"/>
<path d="M14.9349 831.152C35.3413 831.24 48.144 831.431 44.6602 829.045C38.6297 825.929 38.2216 826.206 34.1099 823.342C28.3927 819.361 19.4511 812.122 13.3215 806.306C6.38904 811.272 -7.6385 822.098 -8.28886 825.678C-8.93922 829.257 -0.718629 846.959 8.48711 854.536C31.7552 852.897 57.7443 850.488 52.6224 847.265C33.9299 840.732 25.8579 837.215 14.9349 831.152Z" fill="#3C366B"/>
<rect x="-21" y="822" width="34" height="249" fill="#3C366B"/>
<path d="M982.251 967.252L938.406 971.567L961.255 959.853L983.486 947.521L963.108 950.604L943.964 951.221L970.518 935.19L986.574 924.709L953.845 930.874L969.9 921.626L983.486 908.409L963.108 911.144L991.514 898.196L980.398 895.113L995.837 888.331L1005.72 876L1007.96 893.148L1019.92 901.896L1007.96 903.129L1016.22 913.61L1026.71 921.626L1007.96 918.543L1014.36 930.874L1026.71 937.656L1010.66 935.19L1037.83 953.687L1023.01 951.221L1005.1 952.454L1045.86 969.718L1014.36 968.485L1031.65 978.966L1050.8 993.147L1029.18 988.716L1010.66 990.45L1039.68 1011.03L1065 1030.76L1032.89 1024.59L1001.16 1025.21L1003.86 1077L983.486 1072.07L984.721 1027.67C986.203 1022.25 937.789 1029.32 910 1033.84L935.319 1015.34L980.398 996.23H942.729H918.028L952.61 988.215L982.251 967.252Z" fill="#3C366B"/>
<path d="M585.292 1025.2L557.807 1027.91L572.13 1020.56L586.066 1012.83L573.291 1014.77L561.291 1015.15L577.937 1005.1L588.001 998.534L567.485 1002.4L577.55 996.601L586.066 988.316L573.291 990.031L591.098 981.914L584.13 979.982L593.808 975.73L600.002 968L601.405 978.75L608.905 984.233L601.405 985.006L606.583 991.577L613.163 996.601L601.405 994.669L605.421 1002.4L613.163 1006.65L603.099 1005.1L620.131 1016.7L610.841 1015.15L599.615 1015.93L625.164 1026.75L605.421 1025.98L616.26 1032.55L628.261 1041.44L614.712 1038.66L603.099 1039.74L621.293 1052.64L637.164 1065.01L617.035 1061.15L597.147 1061.53L598.84 1094L586.066 1090.91L586.84 1063.08C587.769 1059.68 557.42 1064.11 540 1066.94L555.871 1055.35L584.13 1043.37H560.517H545.032L566.71 1038.34L585.292 1025.2Z" fill="#3C366B"/>
<path d="M394.292 1040.2L366.807 1042.91L381.13 1035.56L395.066 1027.83L382.291 1029.77L370.291 1030.15L386.937 1020.1L397.001 1013.53L376.485 1017.4L386.55 1011.6L395.066 1003.32L382.291 1005.03L400.098 996.914L393.13 994.982L402.808 990.73L409.002 983L410.405 993.75L417.905 999.233L410.405 1000.01L415.583 1006.58L422.163 1011.6L410.405 1009.67L414.421 1017.4L422.163 1021.65L412.099 1020.1L429.131 1031.7L419.841 1030.15L408.615 1030.93L434.164 1041.75L414.421 1040.98L425.26 1047.55L437.261 1056.44L423.712 1053.66L412.099 1054.74L430.293 1067.64L446.164 1080.01L426.035 1076.15L406.147 1076.53L407.84 1109L395.066 1105.91L395.84 1078.08C396.769 1074.68 366.42 1079.11 349 1081.94L364.871 1070.35L393.13 1058.37H369.517H354.032L375.71 1053.34L394.292 1040.2Z" fill="#3C366B"/>
<path d="M412.292 1040.2L384.807 1042.91L399.13 1035.56L413.066 1027.83L400.291 1029.77L388.291 1030.15L404.937 1020.1L415.001 1013.53L394.485 1017.4L404.55 1011.6L413.066 1003.32L400.291 1005.03L418.098 996.914L411.13 994.982L420.808 990.73L427.002 983L428.405 993.75L435.905 999.233L428.405 1000.01L433.583 1006.58L440.163 1011.6L428.405 1009.67L432.421 1017.4L440.163 1021.65L430.099 1020.1L447.131 1031.7L437.841 1030.15L426.615 1030.93L452.164 1041.75L432.421 1040.98L443.26 1047.55L455.261 1056.44L441.712 1053.66L430.099 1054.74L448.293 1067.64L464.164 1080.01L444.035 1076.15L424.147 1076.53L425.84 1109L413.066 1105.91L413.84 1078.08C414.769 1074.68 384.42 1079.11 367 1081.94L382.871 1070.35L411.13 1058.37H387.517H372.032L393.71 1053.34L412.292 1040.2Z" fill="#3C366B"/>
<path d="M522.292 1017.2L494.807 1019.91L509.13 1012.56L523.066 1004.83L510.291 1006.77L498.291 1007.15L514.937 997.104L525.001 990.534L504.485 994.399L514.55 988.601L523.066 980.316L510.291 982.031L528.098 973.914L521.13 971.982L530.808 967.73L537.002 960L538.405 970.75L545.905 976.233L538.405 977.006L543.583 983.577L550.163 988.601L538.405 986.669L542.421 994.399L550.163 998.65L540.099 997.104L557.131 1008.7L547.841 1007.15L536.615 1007.93L562.164 1018.75L542.421 1017.98L553.26 1024.55L565.261 1033.44L551.712 1030.66L540.099 1031.74L558.293 1044.64L574.164 1057.01L554.035 1053.15L534.147 1053.53L535.84 1086L523.066 1082.91L523.84 1055.08C524.769 1051.68 494.42 1056.11 477 1058.94L492.871 1047.35L521.13 1035.37H497.517H482.032L503.71 1030.34L522.292 1017.2Z" fill="#3C366B"/>
<path d="M1231.29 1011.2L1203.81 1013.91L1218.13 1006.56L1232.07 998.834L1219.29 1000.77L1207.29 1001.15L1223.94 991.104L1234 984.534L1213.48 988.399L1223.55 982.601L1232.07 974.316L1219.29 976.031L1237.1 967.914L1230.13 965.982L1239.81 961.73L1246 954L1247.41 964.75L1254.91 970.233L1247.41 971.006L1252.58 977.577L1259.16 982.601L1247.41 980.669L1251.42 988.399L1259.16 992.65L1249.1 991.104L1266.13 1002.7L1256.84 1001.15L1245.61 1001.93L1271.16 1012.75L1251.42 1011.98L1262.26 1018.55L1274.26 1027.44L1260.71 1024.66L1249.1 1025.74L1267.29 1038.64L1283.16 1051.01L1263.03 1047.15L1243.15 1047.53L1244.84 1080L1232.07 1076.91L1232.84 1049.08C1233.77 1045.68 1203.42 1050.11 1186 1052.94L1201.87 1041.35L1230.13 1029.37H1206.52H1191.03L1212.71 1024.34L1231.29 1011.2Z" fill="#3C366B"/>
<path d="M1367.87 958.202L1395.36 960.908L1381.03 953.564L1367.1 945.834L1379.87 947.767L1391.87 948.153L1375.23 938.104L1365.16 931.534L1385.68 935.399L1375.61 929.601L1367.1 921.316L1379.87 923.031L1362.07 914.914L1369.03 912.982L1359.36 908.73L1353.16 901L1351.76 911.75L1344.26 917.233L1351.76 918.006L1346.58 924.577L1340 929.601L1351.76 927.669L1347.74 935.399L1340 939.65L1350.07 938.104L1333.03 949.699L1342.32 948.153L1353.55 948.926L1328 959.748L1347.74 958.975L1336.9 965.546L1324.9 974.436L1338.45 971.658L1350.07 972.745L1331.87 985.644L1316 998.012L1336.13 994.147L1356.02 994.534L1354.32 1027L1367.1 1023.91L1366.32 996.08C1365.4 992.679 1395.74 997.11 1413.16 999.945L1397.29 988.35L1369.03 976.368H1392.65H1408.13L1386.45 971.344L1367.87 958.202Z" fill="#3C366B"/>
<path d="M1388.87 964.202L1416.36 966.908L1402.03 959.564L1388.1 951.834L1400.87 953.767L1412.87 954.153L1396.23 944.104L1386.16 937.534L1406.68 941.399L1396.61 935.601L1388.1 927.316L1400.87 929.031L1383.07 920.914L1390.03 918.982L1380.36 914.73L1374.16 907L1372.76 917.75L1365.26 923.233L1372.76 924.006L1367.58 930.577L1361 935.601L1372.76 933.669L1368.74 941.399L1361 945.65L1371.07 944.104L1354.03 955.699L1363.32 954.153L1374.55 954.926L1349 965.748L1368.74 964.975L1357.9 971.546L1345.9 980.436L1359.45 977.658L1371.07 978.745L1352.87 991.644L1337 1004.01L1357.13 1000.15L1377.02 1000.53L1375.32 1033L1388.1 1029.91L1387.32 1002.08C1386.4 998.679 1416.74 1003.11 1434.16 1005.94L1418.29 994.35L1390.03 982.368H1413.65H1429.13L1407.45 977.344L1388.87 964.202Z" fill="#3C366B"/>
<path d="M1416.87 962.202L1444.36 964.908L1430.03 957.564L1416.1 949.834L1428.87 951.767L1440.87 952.153L1424.23 942.104L1414.16 935.534L1434.68 939.399L1424.61 933.601L1416.1 925.316L1428.87 927.031L1411.07 918.914L1418.03 916.982L1408.36 912.73L1402.16 905L1400.76 915.75L1393.26 921.233L1400.76 922.006L1395.58 928.577L1389 933.601L1400.76 931.669L1396.74 939.399L1389 943.65L1399.07 942.104L1382.03 953.699L1391.32 952.153L1402.55 952.926L1377 963.748L1396.74 962.975L1385.9 969.546L1373.9 978.436L1387.45 975.658L1399.07 976.745L1380.87 989.644L1365 1002.01L1385.13 998.147L1405.02 998.534L1403.32 1031L1416.1 1027.91L1415.32 1000.08C1414.4 996.679 1444.74 1001.11 1462.16 1003.94L1446.29 992.35L1418.03 980.368H1441.65H1457.13L1435.45 975.344L1416.87 962.202Z" fill="#3C366B"/>
<path d="M836.873 1016.2L864.357 1018.91L850.034 1011.56L836.098 1003.83L848.873 1005.77L860.873 1006.15L844.228 996.104L834.163 989.534L854.679 993.399L844.615 987.601L836.098 979.316L848.873 981.031L831.066 972.914L838.034 970.982L828.356 966.73L822.162 959L820.759 969.75L813.259 975.233L820.759 976.006L815.582 982.577L809.001 987.601L820.759 985.669L816.743 993.399L809.001 997.65L819.066 996.104L802.033 1007.7L811.323 1006.15L822.55 1006.93L797 1017.75L816.743 1016.98L805.904 1023.55L793.904 1032.44L807.452 1029.66L819.066 1030.74L800.871 1043.64L785 1056.01L805.13 1052.15L825.017 1052.53L823.324 1085L836.098 1081.91L835.324 1054.08C834.395 1050.68 864.744 1055.11 882.164 1057.94L866.293 1046.35L838.034 1034.37H861.647H877.132L855.454 1029.34L836.873 1016.2Z" fill="#3C366B"/>
<path d="M774.873 1017.2L802.357 1019.91L788.034 1012.56L774.098 1004.83L786.873 1006.77L798.873 1007.15L782.228 997.104L772.163 990.534L792.679 994.399L782.615 988.601L774.098 980.316L786.873 982.031L769.066 973.914L776.034 971.982L766.356 967.73L760.162 960L758.759 970.75L751.259 976.233L758.759 977.006L753.582 983.577L747.001 988.601L758.759 986.669L754.743 994.399L747.001 998.65L757.066 997.104L740.033 1008.7L749.323 1007.15L760.55 1007.93L735 1018.75L754.743 1017.98L743.904 1024.55L731.904 1033.44L745.452 1030.66L757.066 1031.74L738.871 1044.64L723 1057.01L743.13 1053.15L763.017 1053.53L761.324 1086L774.098 1082.91L773.324 1055.08C772.395 1051.68 802.744 1056.11 820.164 1058.94L804.293 1047.35L776.034 1035.37H799.647H815.132L793.454 1030.34L774.873 1017.2Z" fill="#3C366B"/>
<path d="M693.633 1009.14L719.865 1017.78L707.49 1007.49L695.576 996.903L707.621 1001.58L719.248 1004.57L705.196 991.133L696.807 982.525L715.987 990.773L707.429 982.919L700.926 972.975L713.018 977.436L697.411 965.63L704.633 965.264L696.116 959.003L691.758 950.108L688.043 960.293L679.527 964.008L686.678 966.398L680.192 971.681L672.673 975.149L684.57 975.828L678.964 982.496L670.481 984.956L680.64 985.643L661.488 993.242L670.892 993.761L681.679 996.964L654.384 1001.95L673.82 1005.5L661.808 1009.55L648.158 1015.61L661.986 1015.85L673.082 1019.45L652.512 1028.07L634.325 1036.68L654.813 1037.3L674.137 1042.01L665.4 1073.33L678.542 1073.1L683.858 1045.77C683.693 1042.25 712.344 1053.19 728.726 1059.76L715.767 1044.98L690.803 1027.12L713.848 1032.28L728.959 1035.65L708.9 1026.02L693.633 1009.14Z" fill="#3C366B"/>
<path d="M457.292 1017.2L429.807 1019.91L444.13 1012.56L458.066 1004.83L445.291 1006.77L433.291 1007.15L449.937 997.104L460.001 990.534L439.485 994.399L449.55 988.601L458.066 980.316L445.291 982.031L463.098 973.914L456.13 971.982L465.808 967.73L472.002 960L473.405 970.75L480.905 976.233L473.405 977.006L478.583 983.577L485.163 988.601L473.405 986.669L477.421 994.399L485.163 998.65L475.099 997.104L492.131 1008.7L482.841 1007.15L471.615 1007.93L497.164 1018.75L477.421 1017.98L488.26 1024.55L500.261 1033.44L486.712 1030.66L475.099 1031.74L493.293 1044.64L509.164 1057.01L489.035 1053.15L469.147 1053.53L470.84 1086L458.066 1082.91L458.84 1055.08C459.769 1051.68 429.42 1056.11 412 1058.94L427.871 1047.35L456.13 1035.37H432.517H417.032L438.71 1030.34L457.292 1017.2Z" fill="#3C366B"/>
<path d="M137.292 1025.2L109.807 1027.91L124.13 1020.56L138.066 1012.83L125.291 1014.77L113.291 1015.15L129.937 1005.1L140.001 998.534L119.485 1002.4L129.55 996.601L138.066 988.316L125.291 990.031L143.098 981.914L136.13 979.982L145.808 975.73L152.002 968L153.405 978.75L160.905 984.233L153.405 985.006L158.583 991.577L165.163 996.601L153.405 994.669L157.421 1002.4L165.163 1006.65L155.099 1005.1L172.131 1016.7L162.841 1015.15L151.615 1015.93L177.164 1026.75L157.421 1025.98L168.26 1032.55L180.261 1041.44L166.712 1038.66L155.099 1039.74L173.293 1052.64L189.164 1065.01L169.035 1061.15L149.147 1061.53L150.84 1094L138.066 1090.91L138.84 1063.08C139.769 1059.68 109.42 1064.11 92 1066.94L107.871 1055.35L136.13 1043.37H112.517H97.0324L118.71 1038.34L137.292 1025.2Z" fill="#3C366B"/>
<path d="M58.2917 1017.2L30.807 1019.91L45.13 1012.56L59.0659 1004.83L46.2913 1006.77L34.291 1007.15L50.9366 997.104L61.0014 990.534L40.4847 994.399L50.5495 988.601L59.0659 980.316L46.2913 982.031L64.0983 973.914L57.1303 971.982L66.808 967.73L73.0018 960L74.405 970.75L81.9053 976.233L74.405 977.006L79.5826 983.577L86.1635 988.601L74.405 986.669L78.4213 994.399L86.1635 998.65L76.0986 997.104L93.1314 1008.7L83.8408 1007.15L72.6147 1007.93L98.1638 1018.75L78.4213 1017.98L89.2603 1024.55L101.261 1033.44L87.7119 1030.66L76.0986 1031.74L94.2927 1044.64L110.164 1057.01L90.0345 1053.15L70.1469 1053.53L71.8405 1086L59.0659 1082.91L59.8401 1055.08C60.7692 1051.68 30.4199 1056.11 13 1058.94L28.8714 1047.35L57.1303 1035.37H33.5167H18.0324L39.7105 1030.34L58.2917 1017.2Z" fill="#3C366B"/>
<path d="M99.2917 973.202L71.807 975.908L86.13 968.564L100.066 960.834L87.2913 962.767L75.291 963.153L91.9366 953.104L102.001 946.534L81.4847 950.399L91.5495 944.601L100.066 936.316L87.2913 938.031L105.098 929.914L98.1303 927.982L107.808 923.73L114.002 916L115.405 926.75L122.905 932.233L115.405 933.006L120.583 939.577L127.163 944.601L115.405 942.669L119.421 950.399L127.163 954.65L117.099 953.104L134.131 964.699L124.841 963.153L113.615 963.926L139.164 974.748L119.421 973.975L130.26 980.546L142.261 989.436L128.712 986.658L117.099 987.745L135.293 1000.64L151.164 1013.01L131.035 1009.15L111.147 1009.53L112.84 1042L100.066 1038.91L100.84 1011.08C101.769 1007.68 71.4199 1012.11 54 1014.94L69.8714 1003.35L98.1303 991.368H74.5167H59.0324L80.7105 986.344L99.2917 973.202Z" fill="#3C366B"/>
<path d="M174.292 994.202L146.807 996.908L161.13 989.564L175.066 981.834L162.291 983.767L150.291 984.153L166.937 974.104L177.001 967.534L156.485 971.399L166.55 965.601L175.066 957.316L162.291 959.031L180.098 950.914L173.13 948.982L182.808 944.73L189.002 937L190.405 947.75L197.905 953.233L190.405 954.006L195.583 960.577L202.163 965.601L190.405 963.669L194.421 971.399L202.163 975.65L192.099 974.104L209.131 985.699L199.841 984.153L188.615 984.926L214.164 995.748L194.421 994.975L205.26 1001.55L217.261 1010.44L203.712 1007.66L192.099 1008.74L210.293 1021.64L226.164 1034.01L206.035 1030.15L186.147 1030.53L187.84 1063L175.066 1059.91L175.84 1032.08C176.769 1028.68 146.42 1033.11 129 1035.94L144.871 1024.35L173.13 1012.37H149.517H134.032L155.71 1007.34L174.292 994.202Z" fill="#3C366B"/>
<path d="M1067.92 986.172L1096.49 990.058L1081.6 979.509L1067.12 968.405L1080.39 971.181L1092.87 971.736L1075.57 957.301L1065.1 947.862L1086.43 953.414L1075.97 945.086L1067.12 933.184L1080.39 935.647L1061.88 923.988L1069.13 921.212L1059.07 915.104L1052.63 904L1051.17 919.442L1043.37 927.319L1051.17 928.429L1045.79 937.868L1038.95 945.086L1051.17 942.31L1047 953.414L1038.95 959.521L1049.41 957.301L1031.71 973.957L1041.36 971.736L1053.03 972.847L1026.47 988.393L1047 987.282L1035.73 996.721L1023.25 1009.49L1037.34 1005.5L1049.41 1007.06L1030.5 1025.59L1014 1043.36L1034.92 1037.81L1055.6 1038.36L1053.84 1085L1067.12 1080.56L1066.31 1040.58C1065.35 1035.7 1096.89 1042.06 1115 1046.13L1098.5 1029.48L1069.13 1012.27H1093.67H1109.77L1087.24 1005.05L1067.92 986.172Z" fill="#3C366B"/>
<path d="M324.92 1022.17L353.49 1026.06L338.602 1015.51L324.116 1004.4L337.394 1007.18L349.869 1007.74L332.566 993.301L322.104 983.862L343.43 989.414L332.968 981.086L324.116 969.184L337.394 971.647L318.884 959.988L326.127 957.212L316.068 951.104L309.629 940L308.171 955.442L300.374 963.319L308.171 964.429L302.789 973.868L295.948 981.086L308.171 978.31L303.996 989.414L295.948 995.521L306.41 993.301L288.705 1009.96L298.363 1007.74L310.032 1008.85L283.474 1024.39L303.996 1023.28L292.729 1032.72L280.255 1045.49L294.339 1041.5L306.41 1043.06L287.498 1061.59L271 1079.36L291.924 1073.81L312.597 1074.36L310.837 1121L324.116 1116.56L323.311 1076.58C322.345 1071.7 353.892 1078.06 372 1082.13L355.502 1065.48L326.127 1048.27H350.673H366.769L344.235 1041.05L324.92 1022.17Z" fill="#3C366B"/>
<path d="M566 787C569.6 785 585.833 774.167 593.5 769L618 747L602.5 772L592.5 788.5V809L588 817.5L566 830.5L574.5 811.5L542.5 826L527 864.5L529.5 824L539 808L555.5 801C557.5 797.167 562.4 789 566 787Z" fill="#4C51BF"/>
<path d="M627 782.5L637.5 748.5L638.5 766.5L635 779C634.333 782.167 633 788.6 633 789C633 789.5 636 801.5 636 804C636 806 637.667 807.833 638.5 808.5L648 817C649.5 820.833 652.4 829.1 652 831.5C651.6 833.9 645.833 842.833 643 847L635 870.5V911.5L630.5 870.5C632 855.667 635 825.4 635 823C635 820.6 632 811.667 630.5 807.5L627.5 790L621 794.5L615 807L618.5 793L627 782.5Z" fill="#4C51BF"/>
<path d="M570 914.5C569.6 910.1 558.167 903.667 552.5 901C553.333 902.5 555.1 905.6 555.5 906C555.9 906.4 560 908.5 562 909.5L566 914C565.5 916.167 564.3 920.7 563.5 921.5C562.7 922.3 559.833 924.833 558.5 926L567.5 925.5C571 928 578.2 933.1 579 933.5C579.8 933.9 581.333 936.333 582 937.5L579.5 941L589.5 940.5L595 944.5L591.5 937.5L583.5 934.5L571 921.5C570.833 921 570.4 918.9 570 914.5Z" fill="#4C51BF"/>
<path d="M155.5 859.5L142 836L146 850L149.5 858V866.5L146 873L151 868.5L155.5 868L161.5 871.5L164 881.5L165 874L175.5 877.5L193 891.5L224.5 907L193 887.5L168.5 866.5L159 862.5H155.5V859.5Z" fill="#4C51BF"/>
<path d="M345.5 909C345.1 905.4 334.667 899.167 329.5 896.5L334.5 906.5L343 912L346.5 925.5L343 938.5L349.5 948L367.5 953.5L357 947L351 935.5V924C349.333 920.5 345.9 912.6 345.5 909Z" fill="#4C51BF"/>
<path d="M236 911.5C232.8 912.3 212.667 905.833 203 902.5C203 906.1 224.333 918 236 921.5L251 925.5L262.5 936.5C283.077 948.26 312.852 940.353 311 932.5C310.215 929.174 313.833 923.333 311 923C297 931 273.5 930.833 262.5 928L236 911.5Z" fill="#4C51BF"/>
<path d="M1416.5 755L1435.5 748L1422.5 762L1416.5 769L1397.5 787.5L1389 810L1386.5 817L1380.5 805.5L1370 809L1358 824.5L1359.5 835L1361 845.5L1359.5 867L1357.25 852.5L1355 838L1351.5 827.5L1345.5 821.5L1334.5 822L1324.5 832V822L1311.5 828.5L1301.5 851L1290 858C1289.33 860.667 1287.2 867.8 1284 875C1281.2 881.289 1264.47 892.36 1253.4 898.948C1251.56 900.555 1250.04 901.5 1249 901.5C1250.31 900.762 1251.79 899.902 1253.4 898.948C1260.74 892.514 1273.1 875.469 1279.5 866L1284 851L1315 814.5L1329 805.5L1380.5 794L1389 787.5C1397 779.833 1413.7 764 1416.5 762C1419.3 760 1417.67 756.5 1416.5 755Z" fill="#4C51BF"/>
<path d="M1135 941L1105 936L1126.5 942.5L1134 950L1137.5 960.5L1135 970.5L1138 980.5V987.5L1134 1001.5L1141 987.5L1142.5 977.5L1141.5 965.5L1145 948L1173 927L1135 941Z" fill="#4C51BF"/>
<path d="M271.5 1018C264.667 1021.33 250.6 1028.3 249 1029.5L405 1070.5L1209 1034.5L1195 1015.5L1187.5 1013H1177.5H1169.5C1168 1013 1164.4 1013.5 1162 1015.5C1159 1018 1159 1015.5 1157 1015.5C1155.4 1015.5 1154 1013.83 1153.5 1013H1146.5L1141.5 1006.5C1139.5 1008.67 1135.1 1013.5 1133.5 1015.5C1131.9 1017.5 1129.83 1018 1129 1018L1125.5 1015.5V1013C1124.17 1012.67 1121.2 1012.7 1120 1015.5C1118.8 1018.3 1118.17 1016.67 1118 1015.5L1113.5 1018C1112.67 1019 1110.7 1021 1109.5 1021C1108 1021 1104.5 1018 1102 1018H1096C1094.8 1018 1088.83 1020 1086 1021H1077.5C875 1018.67 466.1 1014.3 450.5 1015.5C431 1017 425.5 1018 416.5 1018C407.5 1018 403.5 1021 399 1021C394.5 1021 389 1021 384.5 1018C380 1015 379 1015 376.5 1015.5C374.5 1015.9 361 1019.33 354.5 1021C344 1021.67 322.3 1022.6 319.5 1021C316.7 1019.4 308 1018.33 304 1018L288.5 1023L281.5 1018H271.5Z" fill="#3C366B"/>
<rect x="-11" y="1027" width="1555" height="173" fill="#3C366B"/>
</g>
<defs>
<radialGradient id="paint0_radial" cx="0" cy="0" r="1" gradientUnits="userSpaceOnUse" gradientTransform="translate(725 825.5) rotate(-94.2202) scale(652.269 907.422)">
<stop stop-color="#FBD38D"/>
<stop offset="1" stop-color="#C4C4C4" stop-opacity="0"/>
</radialGradient>
<clipPath id="clip0">
<rect width="1440" height="1077" fill="white"/>
</clipPath>
</defs>
</svg>
    